<?xml version="1.0" encoding="UTF-8"?>
<!DOCTYPE svg PUBLIC "-//W3C//DTD SVG 1.0//EN" "http://www.w3.org/TR/2001/REC-SVG-20010904/DTD/svg10.dtd">
<!-- Creator: CorelDRAW X7 -->
<svg xmlns="http://www.w3.org/2000/svg" xml:space="preserve" width="11.64mm" height="7.4079mm" version="1.0" style="shape-rendering:geometricPrecision; text-rendering:geometricPrecision; image-rendering:optimizeQuality; fill-rule:evenodd; clip-rule:evenodd"
viewBox="0 0 532 338"
 xmlns:xlink="http://www.w3.org/1999/xlink">
 <defs>
  <style type="text/css">
   <![CDATA[
    .fil0 {fill:white}
   ]]>
  </style>
 </defs>
 <g id="Warstwa_x0020_1">
  <metadata id="CorelCorpID_0Corel-Layer"/>
  <path class="fil0" d="M459 193l0 0 -36 0c-14,0 -24,-11 -24,-24 0,-13 10,-24 24,-24l36 0c13,0 24,-11 24,-24 0,-14 -11,-24 -24,-24 -13,0 -24,-11 -24,-25 0,-13 11,-24 24,-24 2,0 3,0 5,1 38,2 68,33 68,72 0,40 -33,72 -73,72zm-121 -48l-24 0 -84 0 -158 0c-13,0 -24,11 -24,24 0,13 11,24 24,24l25 0 48 0 36 0 49 0 36 0 48 0 24 0c40,0 73,33 73,73 0,38 -30,69 -68,72 -1,0 -3,0 -5,0 -13,0 -24,-11 -24,-24 0,-13 11,-24 24,-24 14,0 24,-11 24,-24 0,-14 -10,-24 -24,-24l-24 0 -48 0 -36 0 -49 0 -36 0 -48 0 -25 0c-40,0 -72,-33 -72,-73 0,-38 30,-69 68,-72 1,0 3,0 4,0l0 0 158 0 84 0 24 0c14,0 24,-11 24,-25 0,-13 -10,-24 -24,-24 -13,0 -24,-10 -24,-24 0,-13 11,-24 24,-24 2,0 4,0 5,0 38,3 68,34 68,72 0,41 -33,73 -73,73z"/>
 </g>
</svg>
